# xmcd
#
# Track frame offsets: 
#        150
#        10104
#        20857
#        30413
#        43034
#        53940
#        64975
#        73097
#        85682
#        99371
#        111908
#        125000
#        140101
#        150069
#        158744
#
# Disc length: 2270 seconds
#
# Revision: 0
# Processed by: cddbd v1.5.2PL0 Copyright (c) Steve Scherf et al.
# Submitted via: ExactAudioCopy v1.3
#
DISCID=c408dc0f
DTITLE=Porter Wagoner and Dolly Parton - Country Club (The Hits Of Porte
DTITLE=r and Dolly)
DYEAR=1976
DGENRE=Country
TTITLE0=Better Move It On Home
TTITLE1=Just Someone I Used To Know
TTITLE2=If Teardrops Were Pennies
TTITLE3=Tomorrow Is Forever
TTITLE4=We Found It
TTITLE5=Yours Love
TTITLE6=Burning The Midnight Oil
TTITLE7=Please Don't Stop Loving Me
TTITLE8=Daddy Was An Old Time Preacher Man
TTITLE9=Say Forever You'll Be Mine
TTITLE10=The Right Combination
TTITLE11=Lost Forever In Your Kiss
TTITLE12=Together Always
TTITLE13=How Can I
TTITLE14=Always, Always
EXTD=
EXTT0=
EXTT1=
EXTT2=
EXTT3=
EXTT4=
EXTT5=
EXTT6=
EXTT7=
EXTT8=
EXTT9=
EXTT10=
EXTT11=
EXTT12=
EXTT13=
EXTT14=
PLAYORDER=
